<?xml version="1.0" standalone="no"?>
<!DOCTYPE svg PUBLIC "-//W3C//DTD SVG 20010904//EN"
 "http://www.w3.org/TR/2001/REC-SVG-20010904/DTD/svg10.dtd">
<svg version="1.0" xmlns="http://www.w3.org/2000/svg"
 width="104.000000pt" height="104.000000pt" viewBox="0 0 104.000000 104.000000"
 preserveAspectRatio="xMidYMid meet">
<metadata>
Created by potrace 1.11, written by Peter Selinger 2001-2013
</metadata>
<g transform="translate(0.000000,104.000000) scale(0.100000,-0.100000)"
fill="#000000" stroke="none">
<path d="M146 779 l-28 -41 -21 20 c-25 22 -84 29 -64 7 8 -8 14 -9 18 -3 7
10 49 -25 49 -39 0 -12 -20 -39 -20 -28 0 6 -4 4 -9 -3 -6 -10 -10 -10 -21 3
-10 12 -10 15 4 15 10 0 16 8 16 21 0 15 -4 19 -16 15 -9 -3 -20 -6 -26 -6 -7
0 -7 -5 1 -13 6 -8 8 -17 5 -20 -8 -7 20 -37 35 -37 18 0 23 -21 8 -38 -18
-21 -31 -88 -18 -96 5 -4 8 -23 6 -44 -2 -21 1 -45 5 -52 5 -8 5 -19 -1 -26
-7 -8 -7 -14 0 -18 7 -4 7 -15 1 -30 -5 -13 -6 -27 -3 -30 4 -3 1 -6 -5 -6
-18 0 -14 -48 5 -81 12 -20 25 -29 43 -29 39 0 50 12 66 75 10 37 24 65 40 77
13 11 31 26 39 34 8 9 15 12 15 7 0 -5 -5 -14 -11 -20 -7 -7 -6 -12 5 -16 9
-4 21 2 30 15 9 12 19 19 22 15 4 -4 -1 -16 -10 -26 -19 -21 -14 -41 10 -41
17 0 17 2 -1 -51 -11 -29 -12 -46 -5 -53 17 -17 11 -27 -12 -24 -17 2 -23 -2
-23 -17 0 -26 44 -34 57 -10 7 12 17 15 38 10 35 -8 49 11 15 19 -14 4 -25 10
-25 15 0 11 57 -15 65 -30 4 -5 10 -9 16 -9 17 0 9 23 -17 46 -18 17 -21 24
-10 24 9 0 27 -18 41 -40 14 -22 30 -40 35 -40 16 0 12 15 -11 44 -17 22 -19
30 -9 39 10 9 11 9 6 -1 -7 -11 34 -62 50 -62 11 0 2 21 -18 40 -20 18 -20 20
-4 14 19 -7 19 -7 3 16 -9 14 -17 29 -17 35 0 5 13 -12 30 -40 16 -27 26 -53
23 -59 -4 -5 3 -7 15 -4 12 4 20 2 16 -3 -7 -12 3 -11 27 1 10 6 19 7 19 2 0
-21 33 -6 42 20 8 23 13 26 24 17 11 -9 11 -15 3 -25 -6 -8 -9 -15 -5 -15 13
-3 22 -6 50 -18 23 -9 37 -9 65 1 20 7 60 13 89 13 35 0 56 5 63 15 8 12 9 10
4 -7 -5 -18 -1 -24 19 -29 56 -14 61 -6 64 90 2 53 -1 93 -8 100 -13 13 -13
29 0 21 6 -4 10 8 10 30 0 29 -4 36 -17 34 -24 -3 -54 11 -48 21 3 5 1 11 -4
14 -5 4 -7 19 -5 36 3 16 -1 40 -7 52 -21 37 -20 57 1 78 12 12 18 25 15 30
-3 5 -1 11 5 15 5 3 10 0 11 -7 0 -7 7 1 14 17 18 40 7 114 -15 100 -5 -3 -18
0 -29 6 -16 10 -22 9 -37 -5 -18 -18 -37 -113 -24 -118 4 -2 11 -14 15 -28 l7
-25 -21 22 c-13 13 -24 42 -27 70 -8 57 -39 99 -61 81 -8 -6 -12 -20 -10 -30
3 -10 1 -21 -4 -24 -5 -3 -7 -15 -3 -27 4 -17 1 -23 -14 -24 -16 -1 -22 8 -31
41 -7 27 -18 46 -33 54 -30 15 -80 11 -73 -5 2 -7 0 -13 -5 -13 -6 0 -10 -7
-10 -16 0 -9 5 -12 13 -8 9 5 9 4 0 -6 -8 -9 -9 -19 -2 -32 5 -10 7 -18 4 -18
-9 0 16 -24 48 -44 22 -15 30 -16 42 -6 19 16 19 30 -1 30 -8 0 -12 5 -9 10 4
7 11 8 18 1 7 -5 16 -9 22 -9 20 -1 15 -19 -9 -32 -14 -7 -23 -16 -21 -21 8
-12 -18 -17 -42 -8 -25 9 -27 7 -37 -33 -3 -16 -11 -28 -16 -28 -6 0 -5 10 2
25 16 36 -5 58 -28 29 -8 -10 -13 -14 -10 -8 6 12 -20 54 -35 54 -5 0 -9 -7
-9 -15 0 -8 -5 -15 -11 -15 -6 0 -9 14 -6 35 3 19 1 35 -4 35 -5 0 -9 -10 -9
-22 0 -13 -5 -30 -10 -38 -8 -11 -10 -8 -8 15 1 17 -2 43 -7 59 l-8 29 -13
-24 c-7 -13 -13 -32 -14 -41 0 -10 -5 -18 -11 -18 -9 0 -8 27 2 69 2 7 -2 16
-9 18 -7 3 -12 1 -11 -4 1 -4 0 -10 -1 -13 -1 -3 -4 -38 -5 -78 -2 -40 -6 -76
-10 -80 -3 -4 -4 37 -2 91 2 53 1 97 -2 97 -12 0 -31 -85 -27 -117 3 -18 1
-33 -4 -33 -12 0 -17 65 -9 113 6 37 -6 62 -17 33 -6 -17 -12 -45 -13 -65 -1
-8 -4 -11 -8 -7 -4 3 -6 27 -4 52 1 34 -1 45 -11 41 -7 -2 -12 -12 -10 -22 4
-19 -16 -37 -31 -28 -4 2 -4 10 1 16 12 15 12 48 0 41 -4 -3 -8 -14 -8 -26 0
-14 -5 -18 -15 -15 -8 4 -17 2 -20 -4 -9 -13 -25 -1 -25 18 0 13 3 13 15 3 8
-7 16 -10 16 -6 5 25 4 33 -9 49 -27 31 -66 22 -96 -24z m62 -30 c-5 -36 -24
-33 -22 3 2 44 2 44 15 31 6 -6 9 -21 7 -34z m513 9 c8 -15 8 -18 0 -14 -6 4
-16 16 -22 28 -8 15 -8 18 0 14 6 -4 16 -16 22 -28z m-419 -43 c2 3 5 -2 5
-10 0 -8 -4 -12 -9 -9 -4 3 -8 -4 -8 -15 0 -23 -3 -24 -49 -15 -39 8 -45 43
-6 40 23 -1 30 -8 26 -29 -1 -5 3 -5 10 -2 6 4 8 18 4 33 -5 21 -4 23 8 14 8
-7 16 -10 19 -7z m198 -40 c0 -14 -4 -25 -9 -25 -4 0 -6 11 -3 25 2 14 6 25 8
25 2 0 4 -11 4 -25z m361 -42 c13 -16 12 -17 -3 -4 -10 7 -18 15 -18 17 0 8 8
3 21 -13z m-388 -18 c4 -8 2 -17 -3 -20 -6 -4 -10 3 -10 14 0 25 6 27 13 6z
m101 -25 c-6 -6 -10 -3 -10 10 0 13 4 16 10 10 7 -7 7 -13 0 -20z m127 -13
c-10 -9 -11 -8 -5 6 3 10 9 15 12 12 3 -3 0 -11 -7 -18z m-384 -2 c0 -8 -4
-12 -9 -9 -5 3 -6 10 -3 15 9 13 12 11 12 -6z m-204 -45 c3 -11 2 -22 -2 -25
-4 -2 -8 1 -8 8 0 7 -4 21 -9 31 -5 13 -4 17 3 13 6 -4 13 -16 16 -27z m587 4
c0 -8 -5 -12 -10 -9 -6 4 -8 11 -5 16 9 14 15 11 15 -7z m-100 -18 c0 -8 -4
-18 -10 -21 -5 -3 -10 -19 -10 -35 0 -16 -3 -31 -8 -34 -9 -6 -8 51 2 82 8 25
26 30 26 8z m277 -23 c-3 -10 -5 -4 -5 12 0 17 2 24 5 18 2 -7 2 -21 0 -30z
m-650 11 c-3 -3 -12 -4 -19 -1 -8 3 -5 6 6 6 11 1 17 -2 13 -5z m273 -66 c-36
-34 -40 -35 -40 -3 0 23 2 24 20 15 17 -9 20 -8 19 12 0 13 -3 17 -6 11 -2 -7
-9 -13 -14 -13 -15 0 -10 22 9 36 14 11 19 9 29 -9 10 -19 8 -25 -17 -49z
m140 23 c-11 -23 -22 -41 -24 -41 -9 0 2 41 18 65 26 40 31 23 6 -24z m70 14
c0 -8 7 -11 20 -8 11 3 20 0 20 -6 0 -7 -10 -10 -24 -7 -22 4 -32 -5 -41 -36
-2 -5 -4 -11 -5 -15 -1 -5 -2 -12 -1 -16 1 -5 -3 -6 -8 -3 -12 8 -4 51 14 80
8 13 12 26 8 31 -5 4 -2 5 5 1 6 -4 12 -13 12 -21z m-483 2 c0 -7 -12 -14 -26
-15 l-26 -2 25 14 c14 8 25 14 26 15 0 1 1 -5 1 -12z m113 -7 c0 -11 -4 -20
-9 -20 -5 0 -7 9 -4 20 3 11 7 20 9 20 2 0 4 -9 4 -20z m111 -3 c-10 -9 -11
-8 -5 6 3 10 9 15 12 12 3 -3 0 -11 -7 -18z m504 -8 c4 -5 -3 -8 -14 -6 -28 4
-34 12 -11 14 11 1 22 -2 25 -8z m-731 -35 c5 -12 2 -15 -10 -10 -8 3 -23 6
-32 6 -15 0 -15 2 -2 10 22 14 37 12 44 -6z m161 -10 c-8 -9 -15 -20 -15 -26
0 -6 -2 -9 -5 -6 -9 8 17 58 27 52 4 -3 1 -12 -7 -20z m345 8 c8 2 15 -5 17
-14 3 -12 -1 -15 -16 -11 -19 5 -21 1 -18 -48 2 -30 7 -60 11 -68 6 -10 5 -12
-2 -7 -8 5 -12 -1 -12 -15 0 -12 -3 -20 -6 -17 -7 7 -13 180 -6 192 2 4 8 3
12 -3 4 -7 13 -11 20 -9z m-280 4 c0 -2 -7 -9 -15 -16 -13 -11 -14 -10 -9 4 5
14 24 23 24 12z m491 -12 c0 -4 -13 -9 -28 -11 l-28 -3 25 14 c25 14 32 14 31
0z m-329 -56 c-7 -7 -9 -5 -7 8 2 11 4 26 6 34 1 8 4 4 6 -9 3 -13 0 -28 -5
-33z m-419 25 c-7 -2 -19 -2 -25 0 -7 3 -2 5 12 5 14 0 19 -2 13 -5z m467 -68
c-16 -41 -21 -25 -7 20 6 22 13 33 15 24 1 -9 -2 -28 -8 -44z m100 44 c0 -5 5
-7 12 -3 6 4 8 3 5 -3 -3 -5 -16 -9 -29 -7 -31 3 -30 3 -23 14 8 13 35 13 35
-1z m160 7 c0 -11 -19 -15 -25 -6 -3 5 1 10 9 10 9 0 16 -2 16 -4z m-740 -16
c0 -5 -5 -10 -11 -10 -5 0 -7 5 -4 10 3 6 8 10 11 10 2 0 4 -4 4 -10z m290 -5
c0 -8 -2 -15 -4 -15 -2 0 -6 7 -10 15 -3 8 -1 15 4 15 6 0 10 -7 10 -15z m-45
-5 c-3 -5 -14 -10 -23 -10 -15 0 -15 2 -2 10 20 13 33 13 25 0z m105 0 c0 -5
-2 -10 -4 -10 -3 0 -8 5 -11 10 -3 6 -1 10 4 10 6 0 11 -4 11 -10z m397 -22
c-3 -8 -6 -5 -6 6 -1 11 2 17 5 13 3 -3 4 -12 1 -19z m-157 -7 c0 -17 -18 -21
-24 -6 -3 9 0 15 9 15 8 0 15 -4 15 -9z m140 -6 c0 -9 -6 -12 -15 -9 -8 4 -15
10 -15 15 0 5 7 9 15 9 8 0 15 -7 15 -15z m-503 -16 c-9 -6 -17 -17 -17 -24 0
-8 -7 -15 -17 -15 -15 0 -15 1 0 18 10 10 14 22 10 27 -5 4 -3 5 4 1 6 -3 15
-1 18 5 4 5 10 7 13 4 4 -4 -1 -11 -11 -16z m237 -24 c-4 -8 -8 -15 -10 -15
-2 0 -4 7 -4 15 0 8 4 15 10 15 5 0 7 -7 4 -15z m126 -5 c0 -5 -4 -10 -10 -10
-5 0 -10 5 -10 10 0 6 5 10 10 10 6 0 10 -4 10 -10z m260 -60 c0 -5 -2 -10 -4
-10 -3 0 -8 5 -11 10 -3 6 -1 10 4 10 6 0 11 -4 11 -10z"/>
<path d="M355 180 c-3 -5 1 -10 10 -10 9 0 13 5 10 10 -3 6 -8 10 -10 10 -2 0
-7 -4 -10 -10z"/>
</g>
</svg>
